<svg xmlns="http://www.w3.org/2000/svg" viewBox="-16 -16 442 118" width="442" height="118" role="img" aria-label="BeCon">
<defs><linearGradient id="gB" gradientUnits="userSpaceOnUse" x1="-7.07" y1="24.24" x2="75.25" y2="71.76"><stop offset="0" stop-color="#1726C4"></stop><stop offset="1" stop-color="#1A66DD"></stop></linearGradient><linearGradient id="gE" gradientUnits="userSpaceOnUse" x1="69.3" y1="51.86" x2="131.36" y2="62.81"><stop offset="0" stop-color="#1A66DD"></stop><stop offset="1" stop-color="#12B2EE"></stop></linearGradient><linearGradient id="gRX" gradientUnits="userSpaceOnUse" x1="341.34" y1="11.27" x2="411.99" y2="23.73"><stop offset="0" stop-color="#12B2EE"></stop><stop offset="0.6" stop-color="#1A66DD"></stop><stop offset="1" stop-color="#1726C4"></stop></linearGradient></defs>
<path d="M0.21 12L44.81 12L44.81 12.21L46.94 12.21L46.94 12.42L48.21 12.42L48.21 12.64L50.97 13.06L50.97 13.27L52.88 13.7L53.73 14.34L54.37 14.34L54.37 14.55L56.07 15.19L56.28 15.61L57.13 15.82L57.56 16.46L57.98 16.46L58.41 17.1L58.83 17.1L61.17 19.43L61.17 19.86L62.02 20.5L62.02 20.92L62.44 21.13L62.65 21.98L63.08 22.19L63.08 22.62L63.72 23.47L63.72 24.11L63.93 24.11L64.35 25.81L64.57 25.81L64.78 27.72L64.99 27.72L65.2 32.18L64.99 32.18L64.99 34.09L64.78 34.09L64.57 35.79L64.35 35.79L63.93 37.7L63.72 37.7L62.65 40.25L62.02 40.67L62.02 41.1L61.38 41.52L61.38 41.95L59.04 44.28L58.62 44.28L58.19 44.92L57.77 44.92L57.35 45.56L56.5 45.77L55.86 46.41L57.35 47.04L57.35 47.26L57.98 47.26L57.98 47.47L58.83 47.68L59.04 48.11L59.89 48.32L60.11 48.74L60.96 48.96L61.59 49.81L62.02 49.81L63.93 51.72L63.93 52.14L64.78 52.78L64.78 53.2L65.63 54.05L65.63 54.48L65.84 54.48L65.84 54.9L66.05 54.9L66.05 55.33L66.27 55.33L66.27 55.75L66.9 56.6L66.9 57.24L67.12 57.24L67.12 57.88L67.33 57.88L67.33 58.51L67.54 58.51L67.54 59.36L67.75 59.36L67.75 60.21L67.96 60.21L67.96 61.7L68.18 61.7L68.18 66.37L67.96 66.37L67.75 68.71L67.54 68.71L67.54 69.56L67.33 69.56L67.12 70.83L66.69 71.26L66.69 71.89L66.48 71.89L66.05 73.17L65.63 73.38L65.42 74.23L64.99 74.44L64.99 74.87L64.35 75.29L64.35 75.72L61.59 78.48L61.17 78.48L60.11 79.54L59.26 79.75L59.04 80.18L58.62 80.18L58.62 80.39L58.19 80.39L58.19 80.6L57.77 80.6L57.77 80.81L57.35 80.81L56.5 81.45L55.86 81.45L55.43 81.88L54.8 81.88L54.8 82.09L54.16 82.09L54.16 82.3L53.52 82.3L53.52 82.51L52.88 82.51L52.88 82.73L50.12 83.15L50.12 83.36L48.64 83.36L48.64 83.58L42.9 83.79L42.9 84L0.21 84L0 83.79L0 40.88L40.35 40.88L40.35 40.67L41.84 40.67L41.84 40.46L43.75 40.25L43.75 40.04L45.88 39.19L46.09 38.76L46.51 38.76L47.58 37.7L47.58 37.27L48.21 36.85L48.21 36.42L48.64 36L48.64 35.36L48.85 35.36L48.85 34.3L49.06 34.3L49.06 30.9L48.85 30.9L48.85 30.05L48.42 29.63L48.42 28.99L47.79 28.57L47.79 28.14L46.51 26.87L46.09 26.87L45.88 26.44L45.45 26.44L45.45 26.23L45.03 26.23L44.18 25.59L42.69 25.38L42.69 25.17L41.2 25.17L41.2 24.96L0.21 24.96L0 24.74L0 12.21L0.21 12.21ZM15.93 53.42L42.05 53.42L42.05 53.63L45.03 53.84L45.03 54.05L47.15 54.48L47.15 54.69L48 54.9L48.21 55.33L49.06 55.54L49.49 56.18L49.91 56.18L50.12 56.81L50.97 57.45L50.97 57.88L51.19 57.88L51.19 58.3L51.82 59.15L52.04 60.85L52.25 60.85L52.25 63.82L52.04 63.82L51.61 65.95L50.97 66.58L50.97 67.01L50.55 67.22L50.55 67.65L49.7 68.5L49.27 68.5L48.85 69.13L48.42 69.13L47.58 69.77L45.66 70.19L45.66 70.41L43.33 70.62L43.33 70.83L40.57 70.83L40.57 71.04L40.35 70.83L15.93 70.83L15.93 53.63Z" fill="url(#gB)" fill-rule="evenodd"></path>
<path d="M99.67 29L108.67 30L113.67 32L114 32.67L115.33 33L117 34.67L117.67 34.67L121.33 38.33L121.33 39L122.67 40L123.33 42L124 42.33L126.33 48L127.33 53L127.33 62.33L90 62.33L90.67 65.67L91.67 67.67L93 68.67L93 69.33L93.67 69.33L94.33 70.33L96.33 71.33L99 72L103 72L107.67 70.67L110 68.67L110.33 67.33L126.33 67.33L125 72L123.67 73.67L123.33 75L122.67 75.33L122.67 76L122 76.33L122 77L118.67 80.33L118 80.33L117.33 81.33L115 82.33L114.67 83L110.67 84.67L106.33 85.67L96.33 85.67L90 84L86 82L83 79.33L82.33 79.33L78.67 75.33L76.67 71.33L76 71L73.67 64L73.33 53.33L75 46.33L76.67 42.67L77.33 42.33L77.67 41L79.33 39.33L79.33 38.67L84.67 33.67L91.33 30.33L95.67 29.33L99.67 29.33ZM99 43L102.33 43L106.33 44.33L109 47L111 52L111 53L90 53L89.67 52.33L90.67 49L91.33 47.67L92.33 47L92.33 46.33L96.33 43.67L99 43.33Z" fill="url(#gE)" fill-rule="evenodd"></path>
<path d="M164.33 12L174.67 12L179 12.67L186 15L188 16L188.33 16.67L190.33 17.33L191 18.33L192.67 19L195.33 22L196.33 22.33L196.33 23L197.67 24L197.67 24.67L198.67 25.33L199.67 27.67L200.33 28L201.33 31L202.33 32.33L204 40.33L186 40.33L185 36.67L184.33 35.33L183.33 34.67L183.33 34L180 31L177.33 29.67L174 28.67L169 28.33L164.33 29L162.67 30L161.67 30L159.33 31.33L158.67 32.33L158 32.33L154.67 36.33L152.67 41.33L152 45L152.33 54.67L153.33 58.33L156.33 63.67L159.67 66.67L164.33 68.67L168 69.33L174.33 69L178 68L182.67 65.33L185.33 62.33L186.67 59.67L187 57.33L205 57.33L203.33 64.67L199.33 72.33L193.67 78.33L193 78.33L191 80.33L183.67 84L176 85.67L171.33 86L160.67 85L157 84L150.67 81L143.67 75.33L143.67 74.67L142 73.33L142 72.67L141 72L141 71.33L139 69L137 65L134.33 56L134 44L136 34.67L140.33 26L142.67 23.67L142.67 23L147.67 18.33L155.67 14L162 12.33L164.33 12.33ZM239 29L245 29.33L250 30.33L253.33 32L254.33 32L256 33.33L257.33 33.67L257.67 34.33L258.33 34.33L258.67 35L259.33 35L261 37L262 37.33L262 38L264 39.67L264 40.33L265.67 42L267.67 46L269.33 52.67L269.33 62.67L267.33 70L264.67 74.67L263.67 75.33L263.67 76L259.67 80L259 80L256.67 82L252.33 84L247.67 85.33L239 86L231 85L227 83.67L225.67 82.67L224.67 82.67L224.33 82L222.33 81.33L221.67 80.33L220 79.67L216 75.67L216 75L214 72.67L212.33 69.33L211 64.67L210.67 53L212.33 46.33L216.33 39.33L218.33 37.67L218.33 37L219 37L220.67 35L221.33 35L223.67 33L228 31L232.67 29.67L239 29.33ZM307.67 29.33L316 29.67L321.33 31.67L325.67 35.33L328.33 40L329.33 43L330.33 49.67L330.33 84L313 84L312.67 50.33L311.67 48L309.67 46L307.67 45L305.33 44.67L302.33 45L299 46.67L296.67 50.67L296.67 84L279 84L279 31L293 31L293.33 44L294.33 39.67L297 35L301.33 31.33L304.67 30L307.67 29.67ZM238 43.67L244 44L247.67 46L249 47.33L251 51L252 55L252 60.67L251 64.67L249.67 67L247 69.67L242.33 71.33L237.33 71.33L233 69.67L230.67 67.33L229 64.33L228 60.33L228 54.67L229.33 50L230.33 49L230.33 48.33L231.67 47.33L231.67 46.67L235.33 44.33L238 44Z" fill="#0B1018" fill-rule="evenodd"></path>
<path d="M343.33 0L363.67 0L368.33 2L371 4.67L372.67 9.33L372.33 16.33L370.33 20L366.33 23L367 23.33L367.67 25L368.67 25.67L370 28.33L371 29L372.33 31.67L374.67 34.33L374.67 35L364.33 35L357.33 24.33L352.33 24.33L352.33 35L343.33 35L343.33 0.33ZM376.67 0L386.67 0L392.33 10L393.33 10L394 9.33L394.67 7.33L395.33 7L396 5L396.67 4.67L399 0L408.67 0L405.67 5.67L405 6L404 8.33L401.67 11.33L401.33 12.67L399 15.67L398.67 17.33L400.33 19.33L402 22.67L402.67 23L402.67 23.67L403.33 24L403.33 24.67L404 25L404.33 26.33L405 26.67L406.33 29.33L407 29.67L407 30.33L407.67 30.67L408 32L410 34.33L410 35L400 35L399.33 33.33L398 32L397.67 30.67L397 30.33L396.67 29L395.33 27.67L395 26.33L394.33 26L394 24.67L393.33 24.33L393.33 23.67L392 23.33L391 25.33L390.33 25.67L389.67 27.67L389 28L388.67 29.33L388 29.67L387.33 31.67L386.67 32L386.33 33.33L385.67 33.67L385.33 35L375.33 35L386.67 17L386.67 16L386 15.67L385.67 14.33L384.33 13L384 11.67L382.67 10.33L382.33 9L381 7.67L380.67 6.33L380 6L380 5.33L379.33 5L379 3.67L378.33 3.33L376.67 0.33ZM352.33 7L360.33 7.33L361.67 8L363.33 10.33L363.33 14L361.67 16.33L358.67 17.33L352.33 17.33L352.33 7.33Z" fill="url(#gRX)" fill-rule="evenodd"></path>
</svg>