<svg xmlns="http://www.w3.org/2000/svg" viewBox="0 0 160 160" width="160" height="160" role="img" aria-label="BeCon">
<defs><linearGradient id="gB" gradientUnits="userSpaceOnUse" x1="31.99" y1="52.28" x2="128.01" y2="107.72"><stop offset="0" stop-color="#1A2CD6"></stop><stop offset="1" stop-color="#1C76EE"></stop></linearGradient></defs>
<rect x="0" y="0" width="160" height="160" rx="36" fill="#0A0D12"></rect>
<path d="M40.47 38L92.51 38L92.51 38.25L94.99 38.25L94.99 38.49L96.47 38.49L96.47 38.75L99.69 39.24L99.69 39.48L101.92 39.98L102.91 40.73L103.66 40.73L103.66 40.98L105.64 41.72L105.89 42.21L106.88 42.46L107.38 43.2L107.87 43.2L108.37 43.95L108.86 43.95L111.59 46.67L111.59 47.17L112.58 47.92L112.58 48.41L113.07 48.65L113.32 49.64L113.82 49.89L113.82 50.39L114.57 51.38L114.57 52.13L114.81 52.13L115.3 54.11L115.56 54.11L115.8 56.34L116.05 56.34L116.3 61.54L116.05 61.54L116.05 63.77L115.8 63.77L115.56 65.75L115.3 65.75L114.81 67.98L114.57 67.98L113.32 70.96L112.58 71.45L112.58 71.95L111.84 72.44L111.84 72.94L109.11 75.66L108.62 75.66L108.12 76.41L107.63 76.41L107.14 77.15L106.14 77.4L105.4 78.14L107.14 78.88L107.14 79.14L107.87 79.14L107.87 79.38L108.86 79.63L109.11 80.13L110.1 80.37L110.36 80.86L111.35 81.12L112.08 82.11L112.58 82.11L114.81 84.34L114.81 84.83L115.8 85.58L115.8 86.07L116.8 87.06L116.8 87.56L117.04 87.56L117.04 88.05L117.29 88.05L117.29 88.55L117.54 88.55L117.54 89.04L118.28 90.03L118.28 90.78L118.53 90.78L118.53 91.53L118.78 91.53L118.78 92.26L119.03 92.26L119.03 93.25L119.27 93.25L119.27 94.25L119.51 94.25L119.51 95.98L119.77 95.98L119.77 101.43L119.51 101.43L119.27 104.16L119.03 104.16L119.03 105.15L118.78 105.15L118.53 106.64L118.03 107.14L118.03 107.87L117.79 107.87L117.29 109.37L116.8 109.61L116.55 110.6L116.05 110.85L116.05 111.35L115.3 111.84L115.3 112.34L112.08 115.56L111.59 115.56L110.36 116.8L109.36 117.04L109.11 117.54L108.62 117.54L108.62 117.79L108.12 117.79L108.12 118.03L107.63 118.03L107.63 118.28L107.14 118.28L106.14 119.03L105.4 119.03L104.9 119.53L104.16 119.53L104.16 119.77L103.41 119.77L103.41 120.02L102.67 120.02L102.67 120.26L101.92 120.26L101.92 120.52L98.7 121.01L98.7 121.25L96.97 121.25L96.97 121.51L90.28 121.76L90.28 122L40.47 122L40.23 121.76L40.23 71.69L87.3 71.69L87.3 71.45L89.04 71.45L89.04 71.2L91.27 70.96L91.27 70.71L93.75 69.72L94 69.22L94.49 69.22L95.74 67.98L95.74 67.48L96.47 66.99L96.47 66.49L96.97 66L96.97 65.25L97.22 65.25L97.22 64.02L97.47 64.02L97.47 60.05L97.22 60.05L97.22 59.06L96.72 58.57L96.72 57.82L95.98 57.33L95.98 56.83L94.49 55.35L94 55.35L93.75 54.85L93.25 54.85L93.25 54.6L92.76 54.6L91.77 53.86L90.03 53.61L90.03 53.37L88.29 53.37L88.29 53.12L40.47 53.12L40.23 52.86L40.23 38.25L40.47 38.25ZM58.81 86.32L89.29 86.32L89.29 86.57L92.76 86.81L92.76 87.06L95.24 87.56L95.24 87.81L96.23 88.05L96.47 88.55L97.47 88.8L97.97 89.54L98.46 89.54L98.7 90.28L99.69 91.03L99.69 91.53L99.95 91.53L99.95 92.02L100.69 93.01L100.94 94.99L101.19 94.99L101.19 98.46L100.94 98.46L100.44 100.94L99.69 101.68L99.69 102.18L99.2 102.42L99.2 102.93L98.21 103.92L97.71 103.92L97.22 104.65L96.72 104.65L95.74 105.4L93.5 105.89L93.5 106.14L90.78 106.39L90.78 106.64L87.56 106.64L87.56 106.88L87.3 106.64L58.81 106.64L58.81 86.57Z" fill="url(#gB)" fill-rule="evenodd"></path>
</svg>